<?xml version="1.0" encoding="utf-8"?>
<!-- Generator: Adobe Illustrator 16.0.0, SVG Export Plug-In . SVG Version: 6.00 Build 0)  -->
<!DOCTYPE svg PUBLIC "-//W3C//DTD SVG 1.1//EN" "http://www.w3.org/Graphics/SVG/1.1/DTD/svg11.dtd">
<svg version="1.1" id="Layer_1" xmlns="http://www.w3.org/2000/svg" xmlns:xlink="http://www.w3.org/1999/xlink" x="0px" y="0px"
	 width="22px" height="34px" viewBox="0 0 22 34" enable-background="new 0 0 22 34" xml:space="preserve">
<path fill-rule="evenodd" clip-rule="evenodd" fill="#BBBBBB" d="M0.841,10.938l3.891,3.83l1.739,1.715
	c0.623,0.612,1.632,0.612,2.252,0l1.689-1.665c0.623-0.611,0.623-1.604,0-2.217l-2.76-2.721l-2.87-2.825
	c-0.622-0.612-1.63-0.612-2.252,0L0.841,8.72C0.22,9.332,0.22,10.326,0.841,10.938z M17.217,0.459L7.652,9.881l2.76,2.721
	c0.623,0.612,0.623,1.605,0,2.217l-1.689,1.665c-0.62,0.612-1.629,0.612-2.252,0l-1.739-1.715l0.1,0.108l1.69,1.665
	c0.621,0.611,1.629,0.611,2.251,0l12.386-12.2c0.622-0.612,0.622-1.606,0-2.218L19.47,0.459C18.848-0.153,17.84-0.153,17.217,0.459z
	"/>
<path fill-rule="evenodd" clip-rule="evenodd" fill="#42B649" d="M0.841,27.938l3.891,3.831l1.739,1.715
	c0.623,0.611,1.632,0.611,2.252,0l1.689-1.665c0.623-0.612,0.623-1.605,0-2.218l-2.76-2.72l-2.87-2.825
	c-0.622-0.613-1.63-0.613-2.252,0L0.841,25.72C0.22,26.331,0.22,27.325,0.841,27.938z M17.217,17.459l-9.564,9.422l2.76,2.72
	c0.623,0.612,0.623,1.605,0,2.218l-1.689,1.665c-0.62,0.611-1.629,0.611-2.252,0l-1.739-1.715l0.1,0.107l1.69,1.665
	c0.621,0.612,1.629,0.612,2.251,0l12.386-12.2c0.622-0.612,0.622-1.605,0-2.218l-1.688-1.664
	C18.848,16.847,17.84,16.847,17.217,17.459z"/>
</svg>
