<?xml version="1.0" encoding="UTF-8"?>
<svg fill="#7F2446" width="100pt" height="100pt" version="1.1" viewBox="0 0 100 100" xmlns="http://www.w3.org/2000/svg">
    <path d="m33.602 54.898v-16.098c-2-1.3984-3.3984-3.6992-3.3984-6.3008l-0.003906-16.801c0-8.3008 6.8008-15.102 15.102-15.102h3.6016c8.2969 0.003906 15.098 6.8008 15.098 15.102v16.699c0 2.6016-1.3008 4.8984-3.3984 6.3008v16.199c0 0.30078 0.19922 0.5 0.39844 0.69922 0.89844 0.39844 3 1.5 5.8984 3.1016-1.6016 2.1992-2.5 4.8984-2.6992 7.8984-0.19922 3.8008 0.80078 9.1016 7.1992 13.199h-0.5c-1.6992 0-3.3008 0.80078-4.3984 2.1992-0.60156 0.80078-0.89844 1.6992-1.1992 2.3984-0.39844 1.1992-0.69922 2.3008-1 3.6016 0 0.19922-0.10156 0.39844-0.19922 0.69922l-11.602 0.003907-3.5-16c7.1016-9.8984-0.5-10.301-1.8984-10.301-1.3008 0-8.8984 0.5-1.8984 10.301l-3.5 16h-35.305v-11.5c0-2.3984 1.1016-4.6992 3-6.3008 10.398-8.5 21.602-14.199 23.801-15.301 0.19922-0.097656 0.40234-0.39844 0.40234-0.69922zm51.797 38c2.3008-0.60156 4.3008-1.8984 5.8008-3.6992 4.1992-5.1016 2.6016-12.699-3.3984-16-1.8984-1-3.8984-1.8008-5.8984-2.6016-1.1016-0.5-2.1992-1-3.1992-1.8008-1.8984-1.5-1.5-4 0.69922-5 0.60156-0.30078 1.3008-0.39844 2-0.39844 2.6016-0.10156 5.1016 0.30078 7.3984 1.5 1.1992 0.60156 1.6016 0.39844 1.8984-0.80078 0.39844-1.3008 0.80078-2.6016 1.1016-3.8984 0.30078-0.89844-0.10156-1.3984-0.89844-1.8008-1.5-0.69922-3-1.1016-4.6992-1.3984-2.1016-0.30078-2.1016-0.30078-2.1016-2.5 0-3 0-3-3-3h-1.3008c-1.3984 0-1.6016 0.30078-1.6992 1.6992v1.8984c0 1.8984 0 1.8984-1.8008 2.5-4.3984 1.6016-7 4.5-7.3008 9.3008-0.30078 4.1992 1.8984 7 5.3984 9.1016 2.1016 1.3008 4.5 2 6.6992 3 0.89844 0.39844 1.6992 0.80078 2.5 1.3984 2.1992 1.8008 1.8008 4.8008-0.80078 5.8984-1.3984 0.60156-2.8008 0.80078-4.3008 0.60156-2.3008-0.30078-4.5-0.89844-6.6016-2-1.1992-0.60156-1.6016-0.5-2 0.89844-0.39844 1.1016-0.69922 2.3008-1 3.3984-0.39844 1.5-0.30078 1.8984 1.1992 2.6016 1.8984 0.89844 3.8984 1.3984 5.8984 1.6992 1.6016 0.30078 1.6992 0.30078 1.6992 2v2.3008c0 1 0.5 1.5 1.3984 1.5h3.3008c0.89844 0 1.3984-0.5 1.3984-1.3984 0-1 0.10156-2.1016 0-3.1016 0.21094-0.99609 0.60938-1.5977 1.6094-1.8984z"/>
</svg>
